# xmcd CD database file
#
# Track frame offsets:
#	150
#	9527
#	21260
#	30210
#	43970
#	52095
#	63342
#	101405
#	113205
#	131830
#	145925
#	158415
#	172062
#	188987
#	207760
#	220760
#	238977
#	255732
#	266962
#	283277
#
# Disc length: 4097 seconds
#
# Revision: 2
# Processed by: cddbd v1.4PL0 Copyright (c) Steve Scherf et al.
# Submitted via: CDex 1.50beta8
#
DISCID=310fff14
DTITLE=Johnny Cash - Columbia Records 1958-1986
DYEAR=1987
DGENRE=Country
TTITLE0=Oh, What A Dream
TTITLE1=I Still Miss Someone
TTITLE2=Pickin' Time
TTITLE3=Don't Take Your Guns To Town
TTITLE4=Five Feet High And Rising
TTITLE5=Seasons of My Heart
TTITLE6=The Legend of John Henry's Hammer
TTITLE7=Ring of Fire
TTITLE8=The Ballad of Ira Hayes
TTITLE9=Orange Blossom Special
TTITLE10=Folsom Prison Blues
TTITLE11=San Quentin #2
TTITLE12=A Boy Named Sue
TTITLE13=Sunday Morning Coming Down
TTITLE14=Man In Black
TTITLE15=One Piece At A Time
TTITLE16=(Ghost) Riders In The Sky
TTITLE17=Without Love
TTITLE18=The Baron
TTITLE19=Highway Patrolman
EXTD=1987 YEAR: 1987
EXTT0=
EXTT1=
EXTT2=
EXTT3=
EXTT4=
EXTT5=
EXTT6=
EXTT7=
EXTT8=
EXTT9=
EXTT10=
EXTT11=
EXTT12=
EXTT13=
EXTT14=
EXTT15=
EXTT16=
EXTT17=With Nick Lowe and Dave Edmunds!
EXTT18=
EXTT19=
PLAYORDER=
